<svg xmlns="http://www.w3.org/2000/svg" width="35.839" height="25.775" viewBox="0 0 35.839 25.775">
  <g id="discord-seeklogo.com" transform="translate(0 0)">
    <path id="Soustraction_1" data-name="Soustraction 1" d="M9.359,25.775h0a13.536,13.536,0,0,1-4.323-.819,11.294,11.294,0,0,1-2.9-1.593A8.754,8.754,0,0,1,0,21.111a36.776,36.776,0,0,1,.69-6.963A42.952,42.952,0,0,1,2.209,8.461,35.938,35.938,0,0,1,4.419,3.222,15.268,15.268,0,0,1,13.007,0h.034l.307.368A25.429,25.429,0,0,0,7.241,2.977,12.58,12.58,0,0,0,5.278,4.388l.008,0c.175-.094.824-.435,1.8-.885A26.16,26.16,0,0,1,11.4,2.026a17.973,17.973,0,0,1,2.654-.46l.018,0,.05-.009a2.57,2.57,0,0,1,.454-.05,25.958,25.958,0,0,1,6.2-.061,25.011,25.011,0,0,1,9.236,2.946,12.372,12.372,0,0,0-1.864-1.35A25.037,25.037,0,0,0,22.369.491L22.8,0h.034a15.269,15.269,0,0,1,8.588,3.222A36.316,36.316,0,0,1,33.63,8.461a42.974,42.974,0,0,1,1.519,5.686,36.777,36.777,0,0,1,.69,6.963,8.82,8.82,0,0,1-2.152,2.252,11.389,11.389,0,0,1-2.91,1.593,13.58,13.58,0,0,1-4.328.819l-.006-.008c-.191-.229-1.187-1.424-2.019-2.478a11.093,11.093,0,0,0,4.284-2.252,6.909,6.909,0,0,0,1.269-1.4,17.563,17.563,0,0,1-3.529,1.81A20.08,20.08,0,0,1,22,22.768a20.923,20.923,0,0,1-3.846.356,22.411,22.411,0,0,1-4.1-.387,25.68,25.68,0,0,1-4.511-1.319A17.9,17.9,0,0,1,7.3,20.375a1.2,1.2,0,0,0-.137-.076l0,0a1.237,1.237,0,0,1-.135-.075A.417.417,0,0,1,6.9,20.13c-.548-.3-.856-.52-.86-.522a6.791,6.791,0,0,0,1.224,1.373,10.939,10.939,0,0,0,4.146,2.248c-.905,1.146-2.045,2.533-2.056,2.547Zm14.023-14.33a3.281,3.281,0,0,0-3.13,3.406,3.28,3.28,0,0,0,3.13,3.406,3.28,3.28,0,0,0,3.13-3.406A3.28,3.28,0,0,0,23.382,11.446Zm-11.2,0a3.28,3.28,0,0,0-3.129,3.406,3.28,3.28,0,0,0,3.129,3.406,3.28,3.28,0,0,0,3.13-3.406,3.474,3.474,0,0,0-.974-2.485A3.012,3.012,0,0,0,12.182,11.446Z" transform="translate(0 0)" fill="#fff"/>
  </g>
</svg>
