<svg xmlns="http://www.w3.org/2000/svg" width="27.386" height="27.386" viewBox="0 0 27.386 27.386">
  <path id="Instagram" d="M19.228,27.386H8.158A8.168,8.168,0,0,1,0,19.228V8.158A8.168,8.168,0,0,1,8.158,0h11.07a8.168,8.168,0,0,1,8.158,8.158v11.07A8.168,8.168,0,0,1,19.228,27.386ZM8.158,2.755a5.41,5.41,0,0,0-5.4,5.4v11.07a5.409,5.409,0,0,0,5.4,5.4h11.07a5.409,5.409,0,0,0,5.4-5.4V8.158a5.409,5.409,0,0,0-5.4-5.4Zm5.535,18.021a7.083,7.083,0,1,1,7.083-7.082A7.091,7.091,0,0,1,13.693,20.776Zm0-11.41a4.328,4.328,0,1,0,4.328,4.328A4.333,4.333,0,0,0,13.693,9.365Zm7.1-1a1.7,1.7,0,1,1,1.7-1.7A1.7,1.7,0,0,1,20.789,8.361Z" fill="#fff"/>
</svg>
