<svg width="84" height="90" viewBox="0 0 84 90" fill="none" xmlns="http://www.w3.org/2000/svg">
<path d="M60.75 79.59V31.695C64.8975 29.4675 67.0275 25.0875 67.0275 20.055C67.0275 13.0275 61.5037 7.26375 54.5775 6.87375C51.6975 2.86875 46.2487 0 40.5562 0C36.915 0 33.8812 1.2075 30.8737 3.615C26.0287 2.0325 20.5725 3.07875 16.6425 6.585C8.56125 5.3025 0.75 11.25 0.75 19.7137C0.75 24.9487 3.82125 29.3925 8.25 31.5262V79.59C8.25 82.08 6.99 84.1012 4.5 84.1012V90H64.5V84.1012C62.01 84.1012 60.75 82.08 60.75 79.59ZM27 78.75H19.5V31.0538C22.02 32.6362 25.185 32.5763 27 32.055V78.75ZM53.8275 27.3488C51.4762 27.3488 49.3875 26.2388 48.0562 24.5138L46.365 25.6988C40.6575 30.1163 45.9412 38.085 46.3275 41.9137C46.71 45.5775 44.4337 48.3337 40.86 48.3337C37.3725 48.3337 35.3287 45.3862 35.6062 41.9137C35.8987 38.2463 41.4637 30.9712 35.295 25.2712L32.9587 23.1413C31.365 25.005 28.9987 26.19 26.355 26.19C24.0862 26.19 22.0238 25.3238 20.475 23.8988C19.1475 25.725 16.9987 26.9137 14.5687 26.9137C4.38375 26.9137 4.005 12.33 14.5687 12.33C16.0612 12.33 17.4562 12.78 18.6075 13.5525C20.0475 10.7362 22.9688 8.805 26.3512 8.805C28.5675 8.805 30.5925 9.6375 32.1262 11.0025C33.9787 7.95 37.3387 5.90625 41.1712 5.90625C45.8775 5.90625 49.8712 8.98125 51.24 13.2375C52.0387 12.93 52.9087 12.765 53.8237 12.765C57.8437 12.765 61.11 16.0312 61.11 20.055C61.11 24.0788 57.8512 27.3488 53.8275 27.3488ZM83.25 46.695C83.25 56.2162 76.5337 68.2575 64.5 72.8063V64.7062C76.3275 57.8437 79.3837 41.25 70.3237 41.25H64.5V33.75H71.67C79.71 33.75 83.25 39.5025 83.25 46.695Z" fill="#E6174A"/>
</svg>
