<svg width="78" height="95" viewBox="0 0 78 95" fill="none" xmlns="http://www.w3.org/2000/svg">
<g opacity="0.4" clip-path="url(#clip0_121_386)">
<path d="M3.31372 95.0002C2.67477 94.6569 2.05656 94.2764 1.46232 93.8606C0.985658 93.4573 0.6074 92.9505 0.356314 92.379C0.105229 91.8075 -0.0120448 91.1862 0.0134244 90.5626C0.0134244 84.1005 0.0134244 77.6251 0.0134244 71.163C0.0314381 71.0494 0.0583493 70.9373 0.0939165 70.8279C1.0603 71.371 2.05443 71.8632 3.07225 72.3026C5.62724 73.38 8.44034 73.6925 11.1697 73.2022C13.8991 72.7119 16.4272 71.4399 18.4468 69.5408C20.2714 67.9186 21.8411 66.0283 23.5985 64.1782C25.2487 65.854 26.6976 67.3287 28.1734 68.7767C30.5842 71.1912 33.7357 72.728 37.1237 73.1412C40.5118 73.5544 43.9406 72.8201 46.8617 71.0558C47.9104 70.4024 48.8825 69.6334 49.7595 68.7633C51.2487 67.3555 52.644 65.8674 54.3344 64.1379C54.6058 64.5798 54.9156 64.997 55.2601 65.3848C56.9521 67.1608 58.7438 68.8394 60.6264 70.4123C62.9395 72.1821 65.7307 73.2176 68.6391 73.3849C71.5474 73.5522 74.4392 72.8436 76.9402 71.3507L78 70.7474V71.9541C78 77.8396 78 83.7117 78 89.5973C78 92.2786 77.1414 94.1422 74.5387 95.0404L3.31372 95.0002Z" fill="#E51B4B"/>
<path d="M54.0795 55.1954C51.1414 58.1851 48.2302 61.1748 45.2787 64.1243C43.9383 65.5477 42.1517 66.4711 40.2146 66.7417C38.2776 67.0123 36.3061 66.6139 34.6265 65.6125C33.8833 65.168 33.206 64.622 32.6141 63.9902C29.6894 61.0944 26.805 58.1583 23.5986 54.9407C23.4589 55.2965 23.2692 55.6305 23.0351 55.9328C20.2804 58.7125 17.5212 61.4877 14.7575 64.2584C13.4289 65.6932 11.6366 66.6142 9.69578 66.8594C7.75496 67.1046 5.78976 66.6583 4.14556 65.5991C2.98862 65.0048 2.008 64.1175 1.30172 63.0259C0.595442 61.9343 0.188236 60.6765 0.120789 59.3783C-0.156999 56.048 -0.112062 52.6986 0.254956 49.3769C1.26115 42.9551 6.69458 38.732 13.3757 38.6515H34.5594V30.2053H43.1992V38.7052C43.6553 38.7052 44.0042 38.7052 44.3664 38.7052H64.4903C67.7116 38.6204 70.8507 39.7281 73.3045 41.8155C74.767 43.0225 75.9441 44.5379 76.7513 46.2532C77.5585 47.9685 77.9758 49.841 77.9732 51.7365C77.9732 54.324 77.9732 56.9249 77.8257 59.5258C77.5715 61.3246 76.7481 62.9949 75.476 64.2927C74.204 65.5904 72.5498 66.4475 70.7555 66.7386C69.3262 66.924 67.8733 66.7611 66.5207 66.2638C65.1681 65.7666 63.9559 64.9497 62.9876 63.883C60.1569 61.0274 57.2859 58.1985 54.4283 55.3697C54.4015 55.3697 54.3478 55.3563 54.0795 55.1954Z" fill="#E51B4B"/>
<path d="M38.906 0C39.0402 0.0804403 39.1207 0.107234 39.1475 0.147454C41.6831 4.55826 44.3529 8.90206 46.7275 13.4067C47.3537 14.6442 47.6683 16.0157 47.6443 17.4022C47.6202 18.7887 47.2581 20.1484 46.5894 21.3634C45.9207 22.5785 44.9655 23.6122 43.8066 24.375C42.6477 25.1378 41.3202 25.6066 39.939 25.7409C38.3856 25.9709 36.7988 25.7464 35.3704 25.0945C33.9419 24.4426 32.7329 23.3912 31.8895 22.0674C30.972 20.8089 30.4286 19.3171 30.3218 17.7637C30.215 16.2102 30.5492 14.6582 31.2858 13.286C31.6078 12.6157 31.9969 11.9454 32.3725 11.3421C34.519 7.57478 36.6924 3.80751 38.906 0Z" fill="#E51B4B"/>
</g>
<defs>
<clipPath id="clip0_121_386">
<rect width="78" height="95" fill="white"/>
</clipPath>
</defs>
</svg>
