<svg width="68" height="95" viewBox="0 0 68 95" fill="none" xmlns="http://www.w3.org/2000/svg">
<g opacity="0.4" clip-path="url(#clip0_121_390)">
<path d="M22.3765 61.7881H23.1926C23.9159 62.9255 24.7399 63.9962 25.6547 64.9873C24.4481 64.0433 23.3488 62.9705 22.3765 61.7881V61.7881Z" fill="black"/>
<path d="M31.2861 77.2009C28.7832 82.2166 26.43 87.3137 24.0223 92.3836C23.7227 93.1277 23.2145 93.7701 22.5584 94.234C21.9023 94.6979 21.126 94.9638 20.3223 94.9999C19.5925 95.0353 18.8656 94.8853 18.2099 94.564C17.5541 94.2427 16.9911 93.7605 16.5736 93.1629C16.1561 92.5653 15.8979 91.8717 15.8232 91.1473C15.7484 90.4229 15.8596 89.6915 16.1463 89.0217C16.772 87.5983 17.6018 86.2292 18.2003 84.8329C18.6492 83.8298 18.8533 83.3689 19.1933 82.5827C19.2695 82.3926 19.3653 82.2108 19.479 82.0404L20.8392 79.1394C20.9038 78.9121 20.9857 78.6901 21.0841 78.4752C21.7506 77.0383 22.4444 75.5878 23.1381 74.178C23.4823 73.529 23.5789 72.7777 23.4101 72.0632C23.0973 70.3552 22.7844 68.6471 22.4852 66.9526C25.3661 67.9765 28.372 68.6103 31.4222 68.8369H31.5718L31.8575 70.4772C31.8575 70.7348 31.9391 71.0194 32.0071 71.277C32.29 72.2623 32.372 73.2942 32.2482 74.3117C32.1243 75.3291 31.7972 76.3116 31.2861 77.2009V77.2009Z" fill="#E51B4B"/>
<path d="M42.3723 65.0008C43.2193 64.0629 43.9924 63.0613 44.6848 62.0049H44.9024L45.1201 62.3709C44.2937 63.3359 43.3732 64.2169 42.3723 65.0008V65.0008Z" fill="black"/>
<path d="M49.2826 71.4128C48.2488 76.4285 47.2422 81.4442 46.1676 86.4463C46.0761 87.0169 45.868 87.5628 45.556 88.0499C45.2439 88.5369 44.8348 88.9549 44.3539 89.2778C43.873 89.6007 43.3306 89.8216 42.7604 89.9269C42.1902 90.0321 41.6044 90.0194 41.0394 89.8895C40.4686 89.7601 39.9299 89.5169 39.4559 89.1746C38.9818 88.8323 38.5822 88.398 38.281 87.8977C37.9798 87.3975 37.7833 86.8416 37.7033 86.2637C37.6233 85.6858 37.6615 85.0977 37.8155 84.5349C38.6997 80.3326 39.5975 76.1302 40.4409 71.9279C40.4942 71.5592 40.412 71.1837 40.2096 70.8705L38.8493 68.5796C41.8047 68.1633 44.6912 67.3564 47.4326 66.1802L48.6977 68.2678C49.2876 69.2036 49.4968 70.3285 49.2826 71.4128V71.4128Z" fill="#E51B4B"/>
<path d="M34.6869 0.0136719H33.3266C24.6022 0.210784 16.2877 3.74276 10.1036 9.87877C3.91941 16.0148 0.338929 24.2852 0.103017 32.9786C-0.132894 41.6721 2.99381 50.1233 8.83615 56.5834C14.6785 63.0435 22.7892 67.0182 31.4902 67.6849C32.1024 67.6849 32.7145 67.7662 33.3266 67.7662H34.6869C35.299 67.7662 35.9111 67.7662 36.5233 67.6849C45.2248 67.0173 53.3358 63.0414 59.1776 56.58C65.0194 50.1185 68.1449 41.6662 67.9072 32.9721C67.6696 24.278 64.0869 16.0078 57.9008 9.87292C51.7146 3.73803 43.3984 0.208107 34.6733 0.0136719H34.6869ZM25.6819 4.41935C20.2408 10.1671 16.6497 21.3372 16.6497 34.1611C16.6497 46.985 20.2952 58.1144 25.6547 63.8757C18.9349 58.6431 14.2828 47.3103 14.2828 34.1475C14.2828 20.9847 18.9485 9.62483 25.6819 4.41935ZM42.3724 63.8486C47.7183 58.0737 51.3502 46.9443 51.3502 34.1611C51.3502 21.3778 47.7183 10.2077 42.3452 4.44647C49.065 9.66551 53.7307 21.0118 53.7307 34.1475C53.7307 47.2832 49.0785 58.616 42.3724 63.8486V63.8486ZM5.64506 33.8899C5.64506 22.4894 10.6781 12.4309 18.2956 6.56119C11.7391 12.7291 7.49505 22.6656 7.49505 33.8899C7.49505 45.1143 11.7391 55.0508 18.2956 61.2187C10.7189 55.349 5.68587 45.3583 5.68587 33.8899H5.64506ZM49.5683 61.2458C56.152 55.0914 60.4504 45.1278 60.4504 33.8899C60.4504 22.6521 56.1792 12.6885 49.5683 6.53407C57.2402 12.3902 62.2868 22.4623 62.2868 33.8899C62.2868 45.3176 57.281 55.3897 49.6091 61.2458H49.5683Z" fill="#E51B4B"/>
<path d="M49.6091 6.53383C46.4212 4.05435 42.6939 2.35497 38.7269 1.57235V1.57235C37.1501 1.26141 35.5462 1.10703 33.9388 1.11145C32.3404 1.10631 30.7454 1.26071 29.1779 1.57235C25.2115 2.37212 21.486 4.07995 18.2957 6.56094C11.7392 12.7289 7.49512 22.6654 7.49512 33.8897C7.49512 45.114 11.7392 55.0505 18.2957 61.2185C21.138 63.4282 24.4074 65.0295 27.8992 65.9224C28.7411 66.1389 29.595 66.3064 30.4565 66.4239C32.7698 66.7673 35.1214 66.7673 37.4347 66.4239C38.2958 66.3038 39.1495 66.1364 39.992 65.9224C43.4565 65.0368 46.6988 63.4443 49.5139 61.2456C56.0976 55.0912 60.3961 45.1276 60.3961 33.8897C60.3961 22.6518 56.2472 12.6882 49.6091 6.53383ZM14.2421 34.1473C14.2421 20.9844 18.9078 9.62458 25.6411 4.4191C20.2001 10.1668 16.6089 21.3369 16.6089 34.1608C16.6089 46.9847 20.2545 58.1142 25.6139 63.8754C18.935 58.6428 14.2829 47.3101 14.2829 34.1473H14.2421ZM42.3317 63.8483C47.6775 58.0735 51.3095 46.9441 51.3095 34.1608C51.3095 21.3776 47.6775 10.2075 42.3045 4.44622C49.0242 9.66526 53.6899 21.0116 53.6899 34.1473C53.6899 47.283 49.0786 58.6157 42.3725 63.8483H42.3317Z" fill="#FCEA10"/>
<path d="M49.609 6.53407C45.5975 2.59815 40.2693 0.276307 34.646 0.0136719H33.2858C27.6612 0.293692 22.336 2.6239 18.3228 6.56119C11.7663 12.7291 7.52222 22.6656 7.52222 33.8899C7.52222 45.1143 11.7663 55.0508 18.3228 61.2187C21.8065 64.6122 26.2678 66.8352 31.0821 67.5765V67.5765C31.808 67.6806 32.5391 67.744 33.2722 67.7662H34.6324C35.3796 67.7455 36.1247 67.6776 36.8633 67.5629V67.5629C41.6452 66.8211 46.0764 64.6131 49.541 61.2458C56.1248 55.0914 60.4232 45.1278 60.4232 33.8899C60.4232 22.6521 56.2472 12.6885 49.609 6.53407ZM14.242 34.1475C14.242 20.9847 18.9077 9.62483 25.6411 4.41935C20.2 10.1671 16.6088 21.3372 16.6088 34.1611C16.6088 46.985 20.2544 58.1144 25.6139 63.8757C18.9349 58.6431 14.2828 47.3103 14.2828 34.1475H14.242ZM42.3316 63.8486C47.6774 58.0737 51.3094 46.9443 51.3094 34.1611C51.3094 21.3778 47.6775 10.2077 42.3044 4.44647C49.0241 9.66551 53.6899 21.0118 53.6899 34.1475C53.6899 47.2832 49.0785 58.616 42.3724 63.8486H42.3316Z" fill="#E51B4B"/>
<path d="M51.3503 34.0253C51.3503 46.7679 47.7183 57.8566 42.3725 63.5908C41.6697 64.3539 40.8954 65.0484 40.06 65.6648V65.6648C39.1127 66.3682 38.0619 66.9215 36.945 67.3051V67.3051L36.5641 67.4271C34.9149 67.8969 33.1667 67.8969 31.5175 67.4271V67.4271L31.1638 67.3051C30.0138 66.9426 28.9299 66.3979 27.9536 65.6919C27.1306 65.0808 26.3656 64.3956 25.6683 63.645C20.3089 57.9108 16.6633 46.8085 16.6633 34.0524C16.6633 21.2963 20.3089 10.1533 25.6956 4.43268C26.7239 3.31551 27.9164 2.36026 29.2323 1.59949C30.6715 0.737134 32.3141 0.269457 33.9932 0.243896C35.6805 0.272333 37.3311 0.739631 38.7814 1.59949V1.59949C40.1149 2.35721 41.3181 3.32287 42.3453 4.45979C47.7184 10.1126 51.3503 21.2691 51.3503 34.0253Z" fill="#E51B4B"/>
</g>
<defs>
<clipPath id="clip0_121_390">
<rect width="68" height="95" fill="white"/>
</clipPath>
</defs>
</svg>
