<svg width="129" height="82" viewBox="0 0 129 82" fill="none" xmlns="http://www.w3.org/2000/svg">
<g opacity="0.4" clip-path="url(#clip0_142_344)">
<path d="M106.487 0.524759L98.5628 5.11067C97.6831 5.61976 97.3817 6.7473 97.8896 7.62907L117.641 41.9216C118.149 42.8033 119.274 43.1055 120.154 42.5964L128.078 38.0104C128.957 37.5014 129.259 36.3738 128.751 35.4921L108.999 1.19957C108.491 0.317799 107.367 0.0156668 106.487 0.524759Z" fill="#E51B4B"/>
<path d="M30.4395 4.83169L22.5154 0.245768C21.6357 -0.263324 20.5109 0.0387857 20.003 0.920558L0.251344 35.2131C-0.256536 36.0948 0.0448666 37.2223 0.924541 37.7314L8.84868 42.3174C9.72836 42.8264 10.8532 42.5243 11.3611 41.6426L31.1127 7.35006C31.6206 6.46829 31.3192 5.34078 30.4395 4.83169Z" fill="#E51B4B"/>
<path d="M98.489 12.971L112.94 38.9062C113.15 39.2812 113.224 39.7176 113.15 40.1412C113.076 40.5649 112.858 40.9497 112.533 41.2305L106.082 46.7876C105.755 47.0721 105.338 47.2325 104.905 47.2409C104.472 47.2493 104.049 47.1052 103.711 46.8337C97.9767 42.2247 73.1803 22.7354 62.9859 20.1149C61.8693 19.8383 57.3107 20.8194 55.7211 22.9197C54.1315 25.0201 48.2986 30.7747 44.9881 31.4792C41.6775 32.1837 37.2306 32.5261 39.996 28.0752C42.7613 23.6243 49.0934 14.8804 49.0934 14.8804C49.0934 14.8804 51.6092 9.79077 64.2011 9.79077C74.6254 9.79077 90.7512 10.9496 95.9667 11.3447C96.4886 11.3851 96.9923 11.5548 97.4326 11.8387C97.8729 12.1226 98.2359 12.5116 98.489 12.971Z" fill="#E51B4B"/>
<path d="M31.8904 12.0161C31.8904 12.0161 35.8315 16.1115 44.3707 15.8284L37.0467 27.5944C37.0467 27.5944 35.2141 30.9984 37.3029 33.0856C39.3917 35.1728 46.9981 35.2189 49.6518 32.5589C52.3055 29.8989 59.8856 23.7295 59.8856 23.7295C60.3938 23.444 60.962 23.2827 61.5441 23.2587C62.1262 23.2347 62.7057 23.3486 63.2356 23.5912C65.1667 24.4011 80.7079 31.433 100.722 47.6302C101.997 48.8615 103.002 49.8557 103.79 50.6458C104.148 51.0046 104.431 51.4318 104.622 51.902C104.813 52.3723 104.907 52.8761 104.901 53.3837C104.894 53.8913 104.786 54.3924 104.583 54.8574C104.379 55.3223 104.085 55.7418 103.718 56.091L102.903 56.8679C102.307 57.4362 101.542 57.7948 100.725 57.8898C99.9073 57.9848 99.0812 57.8111 98.3708 57.3946L79.4468 46.287C79.1828 46.1341 78.8717 46.0844 78.5733 46.1476C78.275 46.2108 78.0106 46.3824 77.8309 46.6294L77.6207 46.9191C77.5234 47.054 77.4543 47.2072 77.4178 47.3696C77.3812 47.532 77.3779 47.7001 77.4079 47.8638C77.438 48.0275 77.5009 48.1834 77.5928 48.3221C77.6847 48.4607 77.8037 48.5793 77.9426 48.6705L92.8729 58.4218C93.3334 58.7217 93.7234 59.1183 94.0161 59.584C94.3089 60.0497 94.4973 60.5736 94.5685 61.1194C94.6397 61.6652 94.5919 62.22 94.4285 62.7455C94.265 63.271 93.9898 63.7547 93.6217 64.1632L93.4312 64.3673C92.8544 65.0084 92.0773 65.4339 91.2275 65.5739C90.3776 65.7139 89.5056 65.56 88.7544 65.1377L73.8175 56.723C73.5614 56.5788 73.2622 56.5314 72.9741 56.5894C72.6861 56.6474 72.4284 56.8069 72.2476 57.0391L72.0046 57.3551C71.8991 57.4923 71.8237 57.6502 71.7832 57.8186C71.7427 57.9869 71.7381 58.162 71.7698 58.3322C71.8014 58.5025 71.8685 58.6641 71.9667 58.8066C72.0649 58.9491 72.1919 59.0693 72.3396 59.1592L83.9068 66.1977C84.3666 66.4755 84.7621 66.8481 85.0672 67.2908C85.3722 67.7336 85.5798 68.2363 85.6761 68.7657C85.7724 69.295 85.7552 69.8389 85.6257 70.3611C85.4962 70.8832 85.2573 71.3718 84.9249 71.7943C84.404 72.4632 83.6744 72.9376 82.8528 73.1417C82.0311 73.3458 81.1649 73.2679 80.3926 72.9203L67.7022 67.238C67.4306 67.116 67.124 67.0974 66.8398 67.1859C66.5555 67.2744 66.3133 67.4639 66.1586 67.7187C66.0715 67.8597 66.014 68.017 65.9897 68.181C65.9653 68.345 65.9747 68.5123 66.0171 68.6726C66.0595 68.8328 66.1342 68.9827 66.2364 69.1131C66.3387 69.2434 66.4664 69.3515 66.6118 69.4306L78.1265 75.8173C78.1265 75.8173 76.4581 80.2419 71.0522 79.6559C67.1157 79.1433 63.2199 78.3556 59.393 77.2988C59.393 77.2988 64.3851 71.373 60.1089 67.1722C59.2914 66.2993 58.2935 65.6161 57.185 65.1702C56.0764 64.7244 54.8841 64.5268 53.6914 64.5912C53.6914 64.5912 55.3993 57.0457 46.3149 55.5313C46.3149 55.5313 46.4003 45.8064 37.0336 46.3134C34.6755 46.6228 32.3108 50.659 32.3108 50.659C32.3108 50.659 28.455 41.3291 20.402 47.2154L14.9829 40.9933L31.8904 12.0161Z" fill="#E51B4B"/>
<path d="M28.1759 54.8419C29.4367 53.1488 29.0896 50.7518 27.4005 49.488C25.7115 48.2242 23.3202 48.5722 22.0594 50.2653L19.9612 53.0828C18.7004 54.7759 19.0476 57.1729 20.7366 58.4367C22.4256 59.7005 24.8169 59.3525 26.0777 57.6594L28.1759 54.8419Z" fill="#E51B4B"/>
<path d="M41.5109 50.8736L40.3844 50.0307C38.6954 48.7669 36.3041 49.1149 35.0433 50.808L27.1967 61.3448C25.9359 63.0379 26.283 65.4349 27.972 66.6987L29.0985 67.5415C30.7875 68.8053 33.1788 68.4574 34.4396 66.7643L42.2862 56.2275C43.547 54.5344 43.1999 52.1374 41.5109 50.8736Z" fill="#E51B4B"/>
<path d="M49.6527 59.6888L48.5263 58.8459C46.8372 57.5821 44.4459 57.9301 43.1851 59.6232L36.7019 68.3291C35.4411 70.0222 35.7883 72.4192 37.4773 73.683L38.6038 74.5258C40.2928 75.7896 42.6841 75.4417 43.9449 73.7486L50.4281 65.0427C51.6889 63.3496 51.3417 60.9526 49.6527 59.6888Z" fill="#E51B4B"/>
<path d="M57.538 68.9366L56.4115 68.0937C54.7225 66.8299 52.3312 67.1779 51.0704 68.871L46.4732 75.0443C45.2124 76.7373 45.5596 79.1343 47.2486 80.3981L48.375 81.241C50.0641 82.5048 52.4554 82.1568 53.7162 80.4638L58.3134 74.2905C59.5742 72.5974 59.227 70.2004 57.538 68.9366Z" fill="#E51B4B"/>
</g>
<defs>
<clipPath id="clip0_142_344">
<rect width="129" height="82" fill="white"/>
</clipPath>
</defs>
</svg>
