<svg width="92" height="83" viewBox="0 0 92 83" fill="none" xmlns="http://www.w3.org/2000/svg">
<path fill-rule="evenodd" clip-rule="evenodd" d="M23.473 14.6107C49.2984 20.0687 66.7221 30.9127 76.0776 60.9507L0 82.3333L23.473 14.6107ZM19.1477 58.3229C23.3734 58.3229 26.8061 61.4035 26.8061 65.184C26.8061 68.9713 23.3734 72.0451 19.1477 72.0451C14.9182 72.0451 11.4894 68.9713 11.4894 65.184C11.4894 61.4035 14.9182 58.3229 19.1477 58.3229ZM37.3952 48.412C41.391 49.647 43.5096 53.5578 42.1304 57.1359C40.7474 60.714 36.3799 62.6145 32.388 61.3761C32.388 61.3761 30.0318 60.6316 30.7866 58.6899C31.5336 56.7482 33.8897 57.4858 33.8897 57.4858C35.4873 57.9832 37.2343 57.2251 37.7898 55.7946C38.3376 54.3572 37.491 52.7963 35.8934 52.2954C35.8934 52.2954 33.4836 51.7225 34.2958 49.6298C35.0314 47.7293 37.3952 48.412 37.3952 48.412ZM27.3501 9.68446C22.044 8.16815 23.7872 0 30.2119 0L30.6372 0.0137222C62.4581 4.61753 84.2915 26.3329 91.9153 54.8958L91.9459 55.4206C91.9459 60.7174 82.8356 62.3881 80.8741 57.9009C72.622 31.1323 54.7193 15.5061 27.3501 9.68446ZM55.5354 48.0312C58.7037 48.0312 61.2781 50.34 61.2781 53.177C61.2781 56.021 58.7037 58.3229 55.5354 58.3229C52.3594 58.3229 49.7849 56.021 49.7849 53.177C49.7849 50.34 52.3594 48.0312 55.5354 48.0312ZM25.1472 47.8528C21.0288 46.9815 18.4773 43.2833 19.4504 39.5989C20.4197 35.9145 24.5496 33.6263 28.6603 34.4977C28.6603 34.4977 31.0892 35.0225 30.5644 37.026C30.0357 39.0294 27.6106 38.5046 27.6106 38.5046C25.9632 38.1546 24.312 39.0706 23.9251 40.5457C23.5343 42.0174 24.5572 43.4994 26.2008 43.8459C26.2008 43.8459 28.6603 44.1993 28.0933 46.3571C27.5761 48.3159 25.1472 47.8528 25.1472 47.8528ZM45.9576 27.4547C50.1833 27.4547 53.616 30.5285 53.616 34.3124C53.616 38.0998 50.1833 41.1735 45.9576 41.1735C41.7281 41.1735 38.2955 38.0998 38.2955 34.3124C38.2955 30.5285 41.7281 27.4547 45.9576 27.4547Z" fill="#E6174A"/>
</svg>
