<svg width="97" height="110" viewBox="0 0 97 110" fill="none" xmlns="http://www.w3.org/2000/svg">
<g opacity="0.4" clip-path="url(#clip0_126_496)">
<path d="M79.8582 107.474C79.9012 107.821 79.8695 108.173 79.7653 108.508C79.661 108.842 79.4866 109.15 79.2535 109.413C79.0204 109.675 78.7339 109.885 78.4131 110.028C78.0923 110.172 77.7444 110.247 77.3925 110.247C77.0406 110.247 76.6928 110.172 76.372 110.028C76.0511 109.885 75.7647 109.675 75.5316 109.413C75.2984 109.15 75.124 108.842 75.0197 108.508C74.9155 108.173 74.8838 107.821 74.9268 107.474C75.001 106.875 75.2925 106.324 75.7467 105.925C76.2009 105.525 76.7862 105.305 77.3925 105.305C77.9988 105.305 78.5842 105.525 79.0383 105.925C79.4925 106.324 79.7841 106.875 79.8582 107.474V107.474Z" fill="white"/>
<path d="M48.5046 3.9561e-07C38.9105 -0.00122136 29.5314 2.82742 21.5537 8.12818C13.5759 13.4289 7.35779 20.9637 3.6857 29.7796C0.0136121 38.5955 -0.947481 48.2965 0.923944 57.6557C2.79537 67.0149 7.41525 75.6119 14.1993 82.3595C20.9834 89.107 29.627 93.7021 39.0368 95.5634C48.4467 97.4248 58.2002 96.4688 67.0638 92.8165C75.9274 89.1642 83.503 82.9795 88.8325 75.0447C94.1619 67.1099 97.0059 57.7814 97.0046 48.2389C97.003 35.4456 91.8926 23.1768 82.7975 14.1307C73.7023 5.08447 61.3671 0.00163835 48.5046 3.9561e-07V3.9561e-07ZM48.5046 91.0602C39.9893 91.0615 31.6648 88.5511 24.5839 83.8465C17.503 79.142 11.9838 72.4547 8.72429 64.6302C5.46474 56.8057 4.61125 48.1956 6.27176 39.8886C7.93227 31.5817 12.0322 23.9511 18.053 17.9618C24.0739 11.9725 31.7452 7.89355 40.0969 6.24078C48.4485 4.58801 57.1054 5.43566 64.9727 8.67652C72.84 11.9174 79.5644 17.4059 84.2954 24.448C89.0264 31.4901 91.5516 39.7694 91.5516 48.2389C91.5524 53.862 90.4395 59.4301 88.2766 64.6254C86.1137 69.8207 82.943 74.5414 78.9456 78.5178C74.9483 82.4942 70.2025 85.6485 64.9794 87.8005C59.7563 89.9526 54.1582 91.0602 48.5046 91.0602Z" fill="#E51B4B"/>
<path d="M28.1721 8.35798L37.5566 17.2225C40.6527 20.108 44.7415 21.706 48.9844 21.6887H51.0713C55.3142 21.706 59.403 20.108 62.4991 17.2225L70.8029 9.38343L57.6795 3.95972L41.3141 4.9172" fill="#E51B4B"/>
<path d="M0.832275 49.8017L12.7942 45.8605C16.6571 44.5875 19.8537 41.8413 21.6819 38.2253L22.57 36.4648C24.3935 32.8513 24.7017 28.6659 23.4271 24.8267L19.9242 14.3252L9.45284 22.9735L3.34144 37.1814" fill="#E51B4B"/>
<path d="M31.8675 89.5406L32.0973 77.0067C32.1692 72.9614 30.6234 69.0531 27.7995 66.1408L26.4207 64.72C25.0241 63.2742 23.3546 62.1164 21.5077 61.313C19.6609 60.5095 17.6728 60.0761 15.6574 60.0376L4.50903 59.8337L9.22923 72.522L20.713 82.9741" fill="#E51B4B"/>
<path d="M84.3548 74.9127L72.3928 70.9716C68.5287 69.7031 64.3166 70.0096 60.6793 71.824L58.8906 72.7135C57.0906 73.6131 55.4866 74.857 54.1705 76.3738C52.8543 77.8906 51.8518 79.6507 51.2203 81.5533L47.7112 92.0548L61.2942 91.3382L74.7405 83.5363" fill="#E51B4B"/>
<path d="M84.3549 19.5142L77.523 30.5778C75.3048 34.2416 74.5615 38.6042 75.4424 42.7904L75.8648 44.8598C76.7004 49.055 79.1012 52.7802 82.5848 55.2872L91.9942 61.9525L94.6772 47.8682L90.4104 31.8503" fill="#E51B4B"/>
<path d="M61.2258 65.7702H34.1717C33.9742 65.6829 33.7833 65.5817 33.6003 65.4675C33.193 65.178 32.868 64.7887 32.6569 64.3373C32.4458 63.8859 32.3557 63.3878 32.3954 62.8915C32.3954 56.9366 32.3954 50.9837 32.3954 45.0328C32.4018 44.674 32.4519 44.3172 32.5444 43.9703C32.6462 43.4401 32.9389 42.965 33.3676 42.634C33.7964 42.3031 34.3318 42.1391 34.8735 42.1727H35.3393V38.6702C35.3158 37.3941 35.5047 36.1229 35.8983 34.9082C37.4758 30.3246 40.5812 27.3965 45.407 26.3958C47.1783 26.0453 49.0065 26.0981 50.7544 26.5502C52.8796 27.0781 54.815 28.184 56.3441 29.7439C58.4309 31.7664 59.7105 34.4721 59.9464 37.3606C60.0706 38.8061 60.0085 40.2701 60.0334 41.7279V42.1727H60.7724C61.1037 42.1774 61.4286 42.2647 61.7172 42.4266C62.0058 42.5885 62.249 42.8198 62.4245 43.0993C62.8237 43.7072 63.0194 44.425 62.9835 45.1502V62.7742C63.0083 64.1208 62.5798 65.2204 61.2258 65.7702ZM54.9343 42.1542C54.9343 41.277 54.9343 40.4369 54.9343 39.6029C54.949 38.8684 54.9137 38.1336 54.8287 37.4038C54.6787 36.4633 54.3428 35.5617 53.8405 34.751C53.3382 33.9404 52.6794 33.2367 51.9021 32.6808C51.1248 32.1248 50.2445 31.7275 49.3119 31.5118C48.3794 31.2961 47.4132 31.2663 46.469 31.4241C43.4878 31.9368 40.8793 34.5869 40.5874 37.6015C40.457 39.084 40.5253 40.5851 40.5067 42.08C40.5067 42.08 40.5067 42.1233 40.5501 42.1604L54.9343 42.1542ZM45.2579 56.7883C45.2579 57.6099 45.2579 58.4315 45.2579 59.2592C45.2359 59.4367 45.2549 59.6168 45.3132 59.786C45.3715 59.9552 45.4677 60.1089 45.5945 60.2357C45.7213 60.3624 45.8755 60.4588 46.0453 60.5176C46.215 60.5764 46.3961 60.596 46.5746 60.575H48.7111C49.7234 60.575 50.1396 60.155 50.1396 59.1357C50.1396 57.5543 50.1396 55.9729 50.1396 54.3853C50.1294 54.1036 50.2296 53.829 50.4191 53.6193C50.9159 53.0451 51.1658 52.2996 51.1147 51.5437C50.978 49.1222 48.8912 47.7694 46.5435 48.4921C46.0345 48.6595 45.5742 48.9478 45.2025 49.332C44.8307 49.7162 44.5587 50.1847 44.4101 50.697C44.2614 51.2093 44.2406 51.7499 44.3493 52.2721C44.4581 52.7942 44.6932 53.2821 45.0343 53.6935C45.1681 53.8727 45.244 54.0881 45.2517 54.3112C45.2703 55.139 45.2579 55.9605 45.2579 56.7883V56.7883Z" fill="#E51B4B"/>
</g>
<defs>
<clipPath id="clip0_126_496">
<rect width="97" height="110" fill="white"/>
</clipPath>
</defs>
</svg>
