<svg width="114" height="83" viewBox="0 0 114 83" fill="none" xmlns="http://www.w3.org/2000/svg">
<path d="M21.2654 28.1094H10.8519V55.3334H21.2654V28.1094Z" fill="#E6174A"/>
<path d="M54.5884 29.6587V53.6734C51.848 53.12 49.4365 51.5707 47.6827 49.3574C45.9288 47.144 45.0519 44.488 45.0519 41.7214C45.0519 38.9547 46.0384 36.188 47.6827 34.0854C49.3269 31.7614 51.848 30.3227 54.5884 29.6587Z" fill="#E6174A"/>
<path d="M11.6192 9.40674H54.5885V24.2361C50.5327 24.9001 46.6962 27.0027 44.0654 30.1014C41.325 33.3107 39.9 37.2947 39.9 41.5001C39.9 45.7054 41.4346 49.8001 44.0654 52.8987C46.8058 56.1081 50.5327 58.2107 54.5885 58.7641V73.5934H11.6192C11.4 73.5934 11.1808 73.4827 11.0712 73.3721C10.9615 73.2614 10.8519 73.2614 10.8519 73.0401V60.4241H26.6365V22.6867H10.8519V10.1814C10.8519 9.96007 10.9615 9.73874 11.0712 9.62807C11.1808 9.5174 11.4 9.40674 11.6192 9.40674Z" fill="#E6174A"/>
<path d="M59.85 53.5627V29.6587C62.5904 30.212 65.0019 31.7614 66.7557 33.9747C68.5096 36.188 69.3865 38.844 69.3865 41.6107C69.3865 44.3774 68.4 47.144 66.7557 49.2467C65.0019 51.46 62.5904 52.8987 59.85 53.5627Z" fill="#E6174A"/>
<path d="M103.477 28.1094H93.0635V55.2227H103.477V28.1094Z" fill="#E6174A"/>
<path d="M103.258 9.62807C103.367 9.73874 103.477 9.96007 103.477 10.1814V22.6867H87.8019V60.4241H103.477V73.0401C103.477 73.2614 103.367 73.4827 103.258 73.5934C103.148 73.7041 102.929 73.8147 102.71 73.8147H59.85V58.8747C63.9057 58.2107 67.7423 56.1081 70.373 53.0094C73.1134 49.8001 74.5384 45.8161 74.5384 41.6107C74.5384 37.4054 73.1134 33.3107 70.373 30.2121C67.6327 27.0027 63.9057 24.9001 59.85 24.3467V9.40674H102.71C102.929 9.40674 103.148 9.5174 103.258 9.62807Z" fill="#E6174A"/>
<path d="M104.354 2.32397H10.0846C6.68655 2.32397 3.83655 5.09064 3.83655 8.63197V74.368C3.83655 77.7986 6.57693 80.676 10.0846 80.676H104.354C107.862 80.676 110.602 77.9093 110.602 74.368V8.63197C110.602 5.20131 107.862 2.32397 104.354 2.32397ZM108.738 73.04C108.738 74.7 108.081 76.2493 106.985 77.356C105.779 78.4626 104.354 79.1266 102.71 79.1266H11.7289C10.0846 79.1266 8.55001 78.4626 7.45386 77.356C6.3577 76.1386 5.70001 74.7 5.70001 73.04V10.1813C5.70001 8.52131 6.3577 6.97197 7.45386 5.86531C8.65962 4.75864 10.1942 4.09464 11.7289 4.09464H102.819C104.354 4.09464 105.888 4.75864 106.985 5.86531C108.081 7.08264 108.738 8.63197 108.738 10.1813V73.04Z" fill="#E6174A"/>
</svg>
