<svg width="88" height="97" viewBox="0 0 88 97" fill="none" xmlns="http://www.w3.org/2000/svg">
<g opacity="0.4" clip-path="url(#clip0_126_514)">
<path d="M50.3988 20.681C56.0673 20.681 60.6626 16.0514 60.6626 10.3405C60.6626 4.62959 56.0673 0 50.3988 0C44.7303 0 40.135 4.62959 40.135 10.3405C40.135 16.0514 44.7303 20.681 50.3988 20.681Z" fill="#E51B4B"/>
<path d="M7.11406 34.5499C5.65345 35.1854 4.9808 36.8936 5.61165 38.3651C6.2425 39.8366 7.93797 40.5143 9.39857 39.8787L36.6413 28.0244C38.1019 27.3888 38.7746 25.6807 38.1437 24.2091C37.5129 22.7376 35.8174 22.06 34.3568 22.6955L7.11406 34.5499Z" fill="#E51B4B"/>
<path d="M43.8152 40.7541C37.6765 59.8852 33.936 69.1772 33.936 69.1772L23.1745 64.2007L26.4173 56.3523L24.4641 55.4405C23.8846 55.1681 23.4234 54.6924 23.1667 54.1023C22.9099 53.5123 22.8752 52.8483 23.0689 52.2343L28.7325 32.1383L37.028 28.5142C37.5434 28.2918 37.9963 27.9444 38.3463 27.503C38.6963 27.0616 38.9325 26.5398 39.0339 25.9842V25.9842C39.1563 25.3602 39.1069 24.7144 38.8911 24.1166C38.6753 23.5189 38.3014 22.992 37.8098 22.593C37.3181 22.1939 36.7276 21.9379 36.1019 21.8527C35.4763 21.7674 34.8394 21.8562 34.2603 22.1094L32.1336 23.0287L30.384 22.2689L7.23208 12.4906C6.81489 12.3145 6.43825 12.0536 6.12574 11.7241C5.81322 11.3946 5.57154 11.0037 5.41582 10.5758C5.2601 10.148 5.19368 9.69233 5.22073 9.23741C5.24777 8.7825 5.36769 8.33811 5.57299 7.93202C5.88156 7.31487 6.35487 6.79666 6.93971 6.43562C7.52455 6.07458 8.19774 5.88503 8.88364 5.88826C9.34283 5.8853 9.79838 5.97038 10.226 6.13897L39.4261 17.5355C39.4261 17.5355 49.9689 21.6155 43.8152 40.7541Z" fill="#E51B4B"/>
<path d="M41.4941 75.25L50.8663 68.5744L64.4189 87.887C65.2975 89.1391 65.6465 90.6916 65.389 92.2029C65.1315 93.7143 64.2886 95.0607 63.0458 95.9459C61.803 96.8311 60.262 97.1827 58.7619 96.9233C57.2617 96.6639 55.9253 95.8147 55.0467 94.5626L41.4941 75.25V75.25Z" fill="#E51B4B"/>
<path d="M33.3856 70.4459L29.8035 79.4568C29.4362 80.4025 28.8217 81.2303 28.025 81.8523C27.2283 82.4744 26.2793 82.8674 25.2787 82.9897C25.2239 83.0006 25.1675 83.0006 25.1128 82.9897L19.9394 80.8092L3.49171 73.8725C2.75035 73.6134 2.06961 73.2038 1.49156 72.6692C0.91351 72.1345 0.450437 71.4861 0.130956 70.764C-0.188524 70.0419 -0.357623 69.2615 -0.365892 68.471C-0.374161 67.6804 -0.221426 66.8966 0.0828794 66.1679C0.387184 65.4391 0.836594 64.7811 1.40333 64.2343C1.97006 63.6874 2.64209 63.2635 3.37786 62.9887C4.11364 62.7139 4.89754 62.594 5.68112 62.6365C6.4647 62.679 7.23131 62.8829 7.93357 63.2357L21.1083 68.7896L22.7146 65.4694L33.3856 70.4459Z" fill="#E51B4B"/>
<path d="M78.5055 95.8908C83.7492 95.8908 88.0001 91.6082 88.0001 86.3253C88.0001 81.0424 83.7492 76.7598 78.5055 76.7598C73.2618 76.7598 69.011 81.0424 69.011 86.3253C69.011 91.6082 73.2618 95.8908 78.5055 95.8908Z" fill="#E51B4B"/>
<path d="M36.0779 66.7992L40.4142 54.3237L50.0218 67.293L40.8214 73.8043L36.0779 66.7992Z" fill="#E51B4B"/>
</g>
<defs>
<clipPath id="clip0_126_514">
<rect width="88" height="97" fill="white"/>
</clipPath>
</defs>
</svg>
