<svg width="149" height="60" viewBox="0 0 149 60" fill="none" xmlns="http://www.w3.org/2000/svg">
<g opacity="0.5" clip-path="url(#clip0_126_435)">
<path d="M3.84918 60C2.82831 60 1.84929 59.583 1.12743 58.8407C0.405563 58.0984 0 57.0916 0 56.0418V3.97311C-7.22341e-06 2.92196 0.405091 1.91364 1.12654 1.16897C1.84799 0.424291 2.82698 0.0039517 3.84918 0H10.7632C12.8839 0 7.68387 1.70276 7.68387 7.30396V56.0418C7.68578 56.5609 7.58799 57.0753 7.39614 57.5554C7.20429 58.0356 6.92216 58.472 6.56588 58.8398C6.20961 59.2075 5.78621 59.4993 5.32001 59.6984C4.85382 59.8975 4.35398 60 3.84918 60V60Z" fill="#E51B4B"/>
<path d="M145.151 60C146.172 60 147.151 59.583 147.873 58.8407C148.594 58.0984 149 57.0916 149 56.0418V3.97311C149 2.92196 148.595 1.91364 147.873 1.16897C147.152 0.424291 146.173 0.0039517 145.151 0H138.222C136.102 0 141.302 1.70276 141.302 7.30396V56.0418C141.302 57.0916 141.707 58.0984 142.429 58.8407C143.151 59.583 144.13 60 145.151 60V60Z" fill="#E51B4B"/>
<path d="M131.177 0H17.6772C15.751 0 13.9037 0.786827 12.5417 2.1874C11.1797 3.58797 10.4146 5.48755 10.4146 7.46826V31.6804C10.4146 33.6611 11.1797 35.5606 12.5417 36.9612C13.9037 38.3618 15.751 39.1486 17.6772 39.1486H131.177C133.104 39.1486 134.951 38.3618 136.313 36.9612C137.675 35.5606 138.44 33.6611 138.44 31.6804V7.46826C138.44 5.48755 137.675 3.58797 136.313 2.1874C134.951 0.786827 133.104 0 131.177 0V0ZM135.68 30.5153C135.68 32.1593 135.045 33.7359 133.915 34.8984C132.784 36.0609 131.251 36.714 129.652 36.714H19.0716C17.4729 36.714 15.9396 36.0609 14.8091 34.8984C13.6787 33.7359 13.0436 32.1593 13.0436 30.5153V8.64825C13.0436 7.00426 13.6787 5.42761 14.8091 4.26513C15.9396 3.10266 17.4729 2.44959 19.0716 2.44959H129.681C131.275 2.45749 132.801 3.11404 133.925 4.27566C135.049 5.43728 135.68 7.00942 135.68 8.64825V30.5153Z" fill="#E51B4B"/>
<path d="M136.203 7.15454H11.2861V9.90286H136.203V7.15454Z" fill="#E51B4B"/>
<path d="M136.203 14.1299H11.2861V16.8782H136.203V14.1299Z" fill="#E51B4B"/>
<path d="M136.203 21.0906H11.2861V23.8389H136.203V21.0906Z" fill="#E51B4B"/>
<path d="M136.203 28.0508H11.2861V30.7991H136.203V28.0508Z" fill="#E51B4B"/>
<path d="M23.4001 39.1487L23.4001 1.29956L20.7275 1.29956L20.7275 39.1487H23.4001Z" fill="#E51B4B"/>
<path d="M32.3042 39.1636V1.31445L29.6315 1.31445L29.6315 39.1636H32.3042Z" fill="#E51B4B"/>
<path d="M41.2083 39.1487V1.29956L38.5356 1.29956V39.1487H41.2083Z" fill="#E51B4B"/>
<path d="M50.1121 39.1487V1.29956L47.4394 1.29956V39.1487H50.1121Z" fill="#E51B4B"/>
<path d="M59.0161 39.1487V1.29956L56.3435 1.29956V39.1487H59.0161Z" fill="#E51B4B"/>
<path d="M67.9055 39.1487V1.29956L65.2329 1.29956V39.1487H67.9055Z" fill="#E51B4B"/>
<path d="M76.8096 39.1487V1.29956L74.1369 1.29956V39.1487H76.8096Z" fill="#E51B4B"/>
<path d="M85.7136 39.1487V1.29956L83.041 1.29956V39.1487H85.7136Z" fill="#E51B4B"/>
<path d="M94.6174 39.1487V1.29956L91.9448 1.29956V39.1487H94.6174Z" fill="#E51B4B"/>
<path d="M103.507 39.1484V1.29932L100.834 1.29932V39.1484H103.507Z" fill="#E51B4B"/>
<path d="M112.411 39.1487V1.29956L109.738 1.29956V39.1487H112.411Z" fill="#E51B4B"/>
<path d="M121.315 39.1484V1.29932L118.642 1.29932V39.1484H121.315Z" fill="#E51B4B"/>
<path d="M130.219 39.1485V1.29932L127.546 1.29932V39.1485H130.219Z" fill="#E51B4B"/>
</g>
<defs>
<clipPath id="clip0_126_435">
<rect width="149" height="60" fill="white"/>
</clipPath>
</defs>
</svg>
