<svg width="101" height="66" viewBox="0 0 101 66" fill="none" xmlns="http://www.w3.org/2000/svg">
<path d="M58.9167 22H8.41667C3.77067 22 0 25.2853 0 29.3333V58.6667C0 62.7147 3.77067 66 8.41667 66H58.9167C63.5627 66 67.3333 62.7147 67.3333 58.6667V29.3333C67.3333 25.2853 63.5627 22 58.9167 22ZM54.7083 36.6667H12.625V33H54.7083V36.6667ZM34.6893 3.66667H46.2917V11H37.4415C35.2785 11 33.1995 11.726 31.634 13.0277L29.6603 14.6667H16.8333L25.7592 6.88967C28.1285 4.82533 31.3395 3.66667 34.6893 3.66667ZM76.0025 7.33333C76.0025 11.3813 72.2318 14.6667 67.5858 14.6667H50.5V0H67.5858C72.2318 0 76.0025 3.28167 76.0025 7.33333ZM101 25.6667V62.3333L75.75 51.3333V36.6667L101 25.6667Z" fill="#E6174A"/>
</svg>
